<svg xmlns="http://www.w3.org/2000/svg" version="1.1"  viewBox="0 0 1422 800"><defs><filter id="uuunion-blur" x="-100%" y="-100%" width="400%" height="400%" color-interpolation-filters="sRGB">
        <feGaussianBlur in="SourceGraphic" stdDeviation="11 6.5" result="blur"></feGaussianBlur>
        <feDropShadow stdDeviation="27.07692307692308" in="blur" dx="22" dy="22" flood-color="#7752fe" flood-opacity="0.28" x="0%" y="0%" width="100%" height="100%"></feDropShadow>
      </filter><filter id="uuunion-blur2" x="-100%" y="-100%" width="400%" height="400%" color-interpolation-filters="sRGB">
        <feGaussianBlur in="SourceGraphic" stdDeviation="11 6.5" result="blur"></feGaussianBlur>
        <feDropShadow stdDeviation="27.07692307692308" in="blur" dx="-22" dy="-22" flood-color="#7752fe" flood-opacity="0.28" x="0%" y="0%" width="100%" height="100%"></feDropShadow>
      </filter><linearGradient gradientTransform="rotate(0, 0.5, 0.5)" x1="50%" y1="0%" x2="50%" y2="100%" id="uuunion-grad"><stop stop-color="#8e8ffa" offset="10%"></stop><stop stop-color="#7752fe" offset="90%"></stop></linearGradient><linearGradient gradientTransform="rotate(109, 0.5, 0.5)" x1="50%" y1="0%" x2="50%" y2="100%" id="uuunion-grad2"><stop stop-color="#8e8ffa" offset="25%"></stop><stop stop-color="#7752fe" offset="100%"></stop></linearGradient><linearGradient gradientTransform="rotate(269, 0.5, 0.5)" x1="50%" y1="0%" x2="50%" y2="100%" id="uuunion-grad3"><stop stop-color="#8e8ffa" offset="0%"></stop><stop stop-color="#7752fe" offset="75%"></stop></linearGradient></defs><path d="M-107.43 -83.1Q-95.15 -82.31 -82.87 -81.42 -70.59 -80.46 -58.31 -79.48 -46.03 -78.53 -33.75 -77.64 -21.47 -76.86 -9.19 -76.24 3.08 -75.79 15.36 -75.54 27.64 -75.51 39.92 -75.68 52.2 -76.07 64.48 -76.64 76.76 -77.37 89.04 -78.22 101.32 -79.16 113.6 -80.14 125.88 -81.11 138.16 -82.03 150.44 -82.85 162.72 -83.54 174.99 -84.05 187.27 -84.38 199.55 -84.49 211.83 -84.4 224.11 -84.09 236.39 -83.59 248.67 -82.91 260.95 -82.1 273.23 -81.19 285.51 -80.22 297.79 -79.24 310.07 -78.3 322.35 -77.43 334.63 -76.69 346.91 -76.11 359.19 -75.71 371.47 -75.51 383.75 -75.53 396.03 -75.76 408.31 -76.19 420.59 -76.81 432.87 -77.57 445.15 -78.45 457.43 -79.4 469.71 -80.38 481.99 -81.35 494.27 -82.25 506.55 -83.04 518.83 -83.68 531.11 -84.15 543.39 -84.43 555.67 -84.49 567.95 -84.34 580.23 -83.98 592.51 -83.43 604.79 -82.72 617.06 -81.88 629.34 -80.95 641.62 -79.97 653.9 -79 666.18 -78.07 678.46 -77.24 690.74 -76.53 703.02 -75.99 715.3 -75.64 727.58 -75.5 739.86 -75.57 752.14 -75.85 764.42 -76.33 776.7 -76.98 788.98 -77.78 801.26 -78.68 813.54 -79.65 825.82 -80.63 838.1 -81.58 850.38 -82.45 862.66 -83.21 874.94 -83.82 887.22 -84.24 899.5 -84.46 911.78 -84.47 924.06 -84.27 936.34 -83.86 948.62 -83.27 960.9 -82.52 973.18 -81.66 985.46 -80.71 997.74 -79.73 1010.02 -78.76 1022.3 -77.85 1034.58 -77.05 1046.86 -76.38 1059.14 -75.88 1071.42 -75.59 1083.7 -75.5 1095.98 -75.62 1108.26 -75.95 1120.54 -76.48 1132.82 -77.17 1145.1 -78 1157.37 -78.92 1169.65 -79.89 1181.93 -80.87 1194.21 -81.81 1206.49 -82.66 1218.77 -83.38 1231.05 -83.94 1243.33 -84.32 1255.61 -84.49 1267.89 -84.44 1280.17 -84.19 1292.45 -83.73 1304.73 -83.1 1317.01 -82.32 1329.29 -81.42 1341.57 -80.47 1353.85 -79.48 1366.13 -78.53 1378.41 -77.64 1390.69 -76.86 1402.97 -76.24 1415.25 -75.79 1427.53 -75.54 1439.81 -75.51 1452.09 -75.68 1464.37 -76.07 1464.2 -60.17 1474.56 -44.27 1494.37 -28.37 1521.54 -12.47 1553.21 3.42 1586.03 19.32 1616.56 35.22 1641.56 51.12 1658.41 67.02 1665.33 82.92 1661.59 98.82 1647.59 114.72 1624.79 130.62 1595.61 146.52 1563.12 162.42 1530.75 178.32 1501.89 194.22 1479.61 210.12 1466.24 226.02 1463.19 241.92 1470.79 257.82 1488.23 273.72 1513.68 289.62 1544.45 305.52 1577.31 321.42 1608.78 337.32 1635.55 353.22 1654.81 369.12 1664.51 385.02 1663.64 400.92 1652.29 416.83 1631.65 432.73 1603.91 448.63 1571.98 464.53 1539.23 480.43 1509.11 496.33 1484.8 512.23 1468.85 528.13 1462.95 544.03 1467.73 559.93 1482.67 575.83 1506.2 591.73 1535.85 607.63 1568.48 623.53 1600.66 639.43 1629 655.33 1650.51 671.23 1662.92 687.13 1664.93 703.03 1656.32 718.93 1638 734.83 1611.9 750.73 1580.78 766.63 1547.9 782.53 1516.75 798.43 1490.59 814.33 1472.2 830.23 1463.5 846.13 1465.41 862.03 1477.73 877.93 1499.17 893.83 1527.46 909.73 1559.62 925.63 1592.26 941.53 1578.64 947.52 1565.01 950.31 1551.38 949.75 1537.76 945.87 1524.13 938.86 1510.5 929.04 1496.88 916.9 1483.25 902.99 1469.62 888 1455.99 872.62 1442.37 857.6 1428.74 843.64 1415.11 831.41 1401.49 821.49 1387.86 814.35 1374.23 810.34 1360.61 809.64 1346.98 812.29 1333.35 818.16 1319.73 826.97 1306.1 838.3 1292.47 851.62 1278.85 866.28 1265.22 881.6 1251.59 896.85 1237.96 911.29 1224.34 924.24 1210.71 935.09 1197.08 943.31 1183.46 948.53 1169.83 950.48 1156.2 949.08 1142.58 944.4 1128.95 936.65 1115.32 926.21 1101.7 913.56 1088.07 899.32 1074.44 884.16 1060.82 868.81 1047.19 853.98 1033.56 840.39 1019.94 828.69 1006.31 819.43 992.68 813.05 979.05 809.85 965.43 809.99 951.8 813.46 938.17 820.09 924.55 829.58 910.92 841.46 897.29 855.18 883.67 870.08 870.04 885.45 856.41 900.56 842.79 914.69 829.16 927.17 815.53 937.41 801.91 944.91 788.28 949.33 774.65 950.45 761.03 948.22 747.4 942.74 733.77 934.28 720.15 923.23 706.52 910.13 692.89 895.59 679.26 880.32 665.64 865.02 652.01 850.44 638.38 837.27 624.76 826.13 611.13 817.55 597.5 811.94 583.88 809.57 570.25 810.55 556.62 814.83 543 822.21 529.37 832.34 515.74 844.74 502.12 858.82 488.49 873.9 474.86 889.27 461.24 904.2 447.61 917.98 433.98 929.96 420.36 939.55 406.73 946.31 393.1 949.92 379.48 950.2 365.85 947.14 352.22 940.89 338.6 931.74 324.97 920.13 311.34 906.61 297.71 891.82 284.09 876.47 270.46 861.29 256.83 847 243.21 834.27 229.58 823.73 215.95 815.86 202.33 811.04 188.7 809.5 175.07 811.31 161.45 816.39 147.82 824.5 134.19 835.25 120.57 848.12 106.94 862.52 93.31 877.74 79.69 893.07 66.06 907.78 52.43 921.17 38.81 932.59 25.18 941.52 11.55 947.52 -2.06 950.31 -15.69 949.75 -29.32 945.87 -42.94 938.86 -56.57 929.05 -70.2 916.91 -83.82 903.01 -97.45 888.01 -111.08 872.64 -124.7 857.61 -138.33 843.65 -151.96 831.42 -140.59 817.13 -129.39 802.84 -119.54 788.55 -112.08 774.26 -107.79 759.97 -107.12 745.68 -110.15 731.39 -116.56 717.1 -125.66 702.81 -136.51 688.52 -147.96 674.23 -158.79 659.94 -167.88 645.65 -174.26 631.36 -177.26 617.08 -176.56 602.79 -172.24 588.5 -164.75 574.21 -154.88 559.92 -143.68 545.63 -132.31 531.34 -121.99 517.05 -113.8 502.76 -108.6 488.47 -106.94 474.18 -108.99 459.89 -114.54 445.6 -123.01 431.31 -133.49 417.02 -144.9 402.73 -156.01 388.44 -165.67 374.16 -172.86 359.87 -176.81 345.58 -177.11 331.29 -173.73 317 -167.03 302.71 -157.71 288.42 -146.75 274.13 -135.31 259.84 -124.6 245.55 -115.74 231.26 -109.66 216.97 -107.02 202.68 -108.08 188.39 -112.73 174.1 -120.49 159.81 -130.54 145.52 -141.81 131.24 -153.12 116.95 -163.28 102.66 -171.22 88.37 -176.1 74.08 -177.4 59.79 -174.99 45.5 -169.12 31.21 -160.42 16.92 -149.79 2.63 -138.36 -11.65 -127.34 -25.94 -117.87 -40.23 -110.98 -54.52 -107.37 -68.81 -107.43 -83.1" fill="url(#uuunion-grad)"></path><path d="M-107.44 -83.1Q-107.38 -68.81 -110.99 -54.52 -117.88 -40.23 -127.34 -25.94 -138.37 -11.65 -149.8 2.63 -160.43 16.92 -169.13 31.21 -175 45.5 -177.41 59.79 -176.11 74.08 -171.23 88.37 -163.29 102.65 -153.13 116.94 -141.82 131.23 -130.55 145.52 -120.5 159.81 -112.74 174.1 -108.09 188.39 -107.03 202.68 -109.67 216.97 -115.75 231.26 -124.61 245.55 -135.32 259.84 -146.76 274.13 -157.72 288.42 -167.04 302.7 -173.74 316.99 -177.12 331.28 -176.82 345.57 -172.87 359.86 -165.68 374.15 -156.32 378.37 -146.96 383.05 -137.6 388.08 -128.24 393.37 -118.88 398.8 -109.52 404.25 -100.15 409.62 -90.79 414.78 -81.43 419.63 -72.07 424.06 -62.71 427.98 -53.35 431.3 -43.99 433.97 -34.63 435.91 -16.93 437.38 -13.81 437.48 -3.24 433.3 7.47 427.94 18.35 421.48 29.38 414.05 40.55 405.8 51.86 396.9 63.29 387.55 74.85 377.97 86.51 368.37 98.27 358.96 110.12 349.95 122.04 341.52 134.03 333.85 146.07 327.07 158.15 321.3 170.25 316.61 182.37 313.03 194.48 310.57 206.59 309.19 218.67 308.82 230.72 309.36 242.71 310.67 254.66 312.6 266.53 314.97 278.32 317.6 290.03 320.3 301.65 322.86 313.16 325.12 324.57 326.88 335.86 328 347.04 328.35 358.09 327.82 369.02 326.34 379.83 323.87 390.52 320.4 401.09 315.96 411.53 310.6 421.87 304.41 432.09 297.51 442.2 290.02 452.22 282.11 462.14 273.93 471.98 265.65 481.75 257.45 491.46 249.5 501.12 241.94 510.73 234.92 520.32 228.56 529.9 222.95 539.47 218.17 549.06 214.26 558.67 211.22 568.33 209.05 578.03 207.69 587.81 207.07 597.67 207.11 607.63 207.68 617.7 208.65 627.89 209.89 638.21 211.24 648.68 212.55 659.31 213.68 670.11 214.49 681.08 214.86 692.24 214.68 703.59 213.86 715.15 212.33 726.9 210.07 738.86 207.04 751.04 203.27 763.42 198.79 776.02 193.65 788.82 187.94 801.83 181.76 815.04 175.2 828.45 168.4 842.04 161.48 855.82 154.57 869.76 147.79 883.86 141.26 898.11 135.09 912.49 129.37 926.99 124.17 941.58 119.57 956.26 115.58 971.01 112.23 985.8 109.51 1000.62 107.4 1015.45 105.84 1030.26 104.77 1045.04 104.11 1059.75 103.77 1074.39 103.65 1088.93 103.65 1103.35 103.65 1117.62 103.56 1131.73 103.28 1145.65 102.71 1159.37 101.78 1172.86 100.43 1186.1 98.61 1199.09 96.28 1211.79 93.44 1224.2 90.08 1236.3 86.23 1248.08 81.94 1259.53 77.24 1270.63 72.2 1281.38 66.9 1291.78 61.42 1301.82 55.84 1311.49 50.25 1320.79 44.72 1329.73 39.35 1338.31 34.19 1346.54 29.31 1361.79 20.77 1376.05 13.38 1388.82 7.92 1400.79 3.49 1411.65 0.3 1422 -2.47 1388.62 -19.68 1360.02 -36.88 1340.28 -54.08 1332.22 -71.28 1337 -88.48 1353.94 -105.68 1380.61 -122.89 1413.19 -140.09 1400.97 -140.16 1388.76 -140.22 1376.54 -140.28 1364.33 -140.32 1352.11 -140.35 1339.89 -140.37 1327.68 -140.37 1315.46 -140.35 1303.25 -140.32 1291.03 -140.28 1278.81 -140.23 1266.6 -140.16 1254.38 -140.09 1242.17 -140.02 1229.95 -139.94 1217.73 -139.87 1205.52 -139.8 1193.3 -139.74 1181.09 -139.69 1168.87 -139.65 1156.65 -139.63 1144.44 -139.62 1132.22 -139.63 1120.01 -139.65 1107.79 -139.68 1095.57 -139.73 1083.36 -139.79 1071.14 -139.86 1058.93 -139.93 1046.71 -140 1034.49 -140.08 1022.28 -140.15 1010.06 -140.22 997.85 -140.27 985.63 -140.32 973.41 -140.35 961.2 -140.37 948.98 -140.37 936.77 -140.36 924.55 -140.33 912.33 -140.29 900.12 -140.24 887.9 -140.17 875.69 -140.1 863.47 -140.03 851.25 -139.95 839.04 -139.88 826.82 -139.81 814.61 -139.75 802.39 -139.7 790.17 -139.66 777.96 -139.63 765.74 -139.62 753.53 -139.62 741.31 -139.64 729.09 -139.68 716.88 -139.72 704.66 -139.78 692.45 -139.85 680.23 -139.92 668.01 -139.99 655.8 -140.07 643.58 -140.14 631.37 -140.21 619.15 -140.27 606.93 -140.31 594.72 -140.35 582.5 -140.37 570.29 -140.37 558.07 -140.36 545.85 -140.33 533.64 -140.29 521.42 -140.24 509.21 -140.18 496.99 -140.11 484.77 -140.04 472.56 -139.96 460.34 -139.89 448.13 -139.82 435.91 -139.76 423.69 -139.7 411.48 -139.66 399.26 -139.63 387.05 -139.62 374.83 -139.62 362.61 -139.64 350.4 -139.67 338.18 -139.72 325.97 -139.77 313.75 -139.84 301.53 -139.91 289.32 -139.98 277.1 -140.06 264.89 -140.13 252.67 -140.2 240.45 -140.26 228.24 -140.31 216.02 -140.34 203.81 -140.36 191.59 -140.37 179.37 -140.36 167.16 -140.34 154.94 -140.3 142.73 -140.25 130.51 -140.19 118.29 -140.12 106.08 -140.05 93.86 -139.97 81.65 -139.9 69.43 -139.83 57.21 -139.76 45 -139.71 32.78 -139.67 20.57 -139.64 8.35 -139.62 -3.86 -139.62 -16.07 -139.64 -28.29 -139.67 -40.5 -139.71 -52.72 -139.76 -64.94 -139.83 -77.15 -139.9 -89.37 -139.97 -101.58 -140.05 -113.8 -140.12 -126.02 -140.19 -137.24 -133.18 -123.73 -111.84 -113.9 -97.5 -107.44 -83.1" fill="url(#uuunion-grad2)" filter="url(#uuunion-blur)"></path><path d="M1478.04 312.06Q1487.37 316.65 1496.71 321.3 1506.04 325.93 1515.37 330.43 1524.7 334.72 1534.03 338.68 1543.36 342.26 1552.69 345.36 1562.02 347.92 1571.35 349.89 1580.68 351.23 1590.01 351.91 1599.35 351.91 1608.68 351.23 1618.01 349.9 1627.34 347.92 1652.22 366.47 1664.51 385.02 1662.46 403.57 1646.35 422.13 1618.5 440.68 1582.89 459.23 1544.6 477.78 1509.11 496.33 1481.5 514.88 1465.72 533.43 1464.01 551.98 1476.63 570.53 1501.78 589.08 1535.85 607.63 1573.97 626.18 1610.69 644.73 1640.77 663.28 1659.89 681.83 1665.34 700.38 1656.32 718.93 1634.12 737.48 1601.93 756.03 1564.34 774.58 1526.73 793.13 1494.48 811.68 1472.2 830.23 1463.07 848.78 1468.4 867.33 1487.43 885.88 1517.44 904.43 1554.13 922.98 1592.26 941.53 1579.76 947.15 1567.26 950.08 1554.77 950.2 1542.27 947.51 1529.77 942.12 1517.27 934.24 1504.77 924.19 1492.27 912.36 1479.77 899.24 1467.27 885.35 1454.77 871.25 1442.27 857.49 1429.77 844.64 1417.27 833.2 1404.77 823.64 1392.27 816.33 1379.78 811.58 1367.28 809.56 1354.78 810.37 1342.28 813.96 1329.78 820.2 1317.28 828.83 1304.78 839.51 1292.28 851.82 1279.78 865.25 1267.28 879.27 1254.78 893.32 1242.28 906.84 1229.78 919.28 1217.28 930.15 1204.79 939.01 1192.29 945.51 1179.79 949.38 1167.29 950.48 1154.79 948.75 1142.29 944.27 1129.79 937.21 1117.29 927.86 1104.79 916.6 1092.29 903.87 1079.79 890.18 1067.29 876.08 1054.79 862.15 1042.29 848.92 1029.79 836.94 1017.3 826.69 1004.8 818.57 992.3 812.91 979.8 809.94 967.3 809.77 954.8 812.42 942.3 817.77 929.8 825.61 917.3 835.63 904.8 847.43 892.3 860.54 879.8 874.42 867.3 888.52 854.8 902.29 842.31 915.16 829.81 926.62 817.31 936.22 804.81 943.56 792.31 948.36 779.81 950.42 767.31 949.66 754.81 946.11 742.31 939.91 729.81 931.31 717.31 920.66 704.81 908.38 692.31 894.96 679.81 880.94 667.32 866.88 654.82 853.35 642.32 840.89 629.82 829.99 617.32 821.1 604.82 814.56 592.32 810.65 579.82 809.51 567.32 811.19 554.82 815.63 542.32 822.65 529.82 831.97 517.32 843.21 504.82 855.92 492.33 869.59 479.83 883.69 467.33 897.63 454.83 910.87 442.33 922.87 429.83 933.16 417.33 941.31 404.83 947.01 392.33 950.03 379.83 950.24 367.33 947.64 354.83 942.32 342.33 934.52 329.83 924.53 317.33 912.75 304.84 899.66 292.34 885.79 279.84 871.68 267.34 857.91 254.84 845.02 242.34 833.53 229.84 823.9 217.34 816.52 204.84 811.68 192.34 809.58 179.84 810.3 167.34 813.81 154.84 819.97 142.34 828.53 129.85 839.15 117.35 851.41 104.85 864.82 92.35 878.83 79.85 892.89 67.35 906.43 54.85 918.92 42.35 929.84 29.85 938.77 17.35 945.35 1.16 944.55 2.67 929.11 7.69 918.42 12.3 907.74 16.28 897.05 19.45 886.36 22.46 870.33 23.72 865 35.37 856.96 46.6 846.32 57.47 833.29 68.06 818.18 78.42 801.39 88.64 783.39 98.78 764.67 108.91 745.78 119.11 727.23 129.42 709.55 139.91 693.19 150.62 678.56 161.59 665.98 172.85 655.69 184.41 647.82 196.28 642.42 208.46 639.39 220.93 638.58 233.68 639.73 246.66 642.5 259.84 646.48 273.18 651.23 286.62 656.29 300.11 661.16 313.6 665.4 327.03 668.57 340.35 670.3 353.51 670.28 366.46 668.27 379.16 664.13 391.59 657.8 403.72 649.33 415.55 638.84 427.06 626.55 438.27 612.73 449.19 597.73 459.86 581.94 470.31 565.76 480.59 549.62 490.76 533.93 500.88 519.07 511.01 505.4 521.23 493.2 531.6 482.69 542.21 474.02 553.11 467.26 564.38 462.39 576.07 459.32 588.23 457.88 600.91 457.84 614.15 458.92 627.94 460.78 642.32 463.07 657.26 465.42 672.75 467.47 688.75 468.89 705.2 469.37 722.06 468.63 739.24 466.48 756.66 462.78 774.23 457.45 791.83 450.49 809.37 441.96 826.72 432 837.78 427.17 848.84 421.65 859.92 415.53 871 408.95 882.08 402.04 893.17 394.95 904.26 387.82 915.34 380.81 926.43 374.05 937.51 367.7 948.58 361.86 959.64 356.67 970.69 352.21 981.73 348.56 992.76 345.78 1003.76 343.91 1014.75 342.95 1025.72 342.89 1036.66 343.7 1047.58 345.33 1058.48 347.69 1069.34 350.69 1080.17 354.23 1090.97 358.17 1101.74 362.38 1112.47 366.73 1123.16 371.08 1133.81 375.27 1144.42 379.17 1154.98 382.66 1165.5 385.62 1175.97 387.94 1186.39 389.54 1196.76 390.34 1207.08 390.3 1217.35 389.4 1227.55 387.63 1237.71 385 1247.8 381.55 1257.83 377.35 1267.81 372.48 1277.71 367.02 1287.56 361.09 1297.34 354.81 1307.06 348.31 1316.7 341.71 1326.28 335.17 1335.79 328.8 1345.23 322.75 1354.6 317.12 1363.9 312.03 1373.13 307.58 1382.28 303.83 1391.36 300.85 1400.36 298.68 1409.29 297.34 1418.15 296.83 1426.93 297.11 1435.64 298.16 1444.27 299.91 1452.83 302.27 1461.31 305.16 1469.71 308.46 1478.04 312.06" fill="url(#uuunion-grad3)" filter="url(#uuunion-blur2)"></path></svg>